<svg width="151" height="31" viewBox="0 0 151 31" xmlns="http://www.w3.org/2000/svg" xmlns:xlink="http://www.w3.org/1999/xlink">
    <defs>
        <linearGradient x1="19.243%" y1="84.438%" x2="80.57%" y2="15.572%" id="0lmuokmcfc">
            <stop stop-color="#0041BF" offset="0%"/>
            <stop stop-color="#2326D0" offset="17%"/>
            <stop stop-color="#5400E8" offset="39%"/>
            <stop stop-color="#3669DC" offset="80%"/>
            <stop stop-color="#2898D7" offset="100%"/>
        </linearGradient>
        <linearGradient x1="509.565%" y1="50.039%" x2="510.336%" y2="50.039%" id="u6b5stj04f">
            <stop stop-color="#0041BF" offset="0%"/>
            <stop stop-color="#063CC2" offset="17%"/>
            <stop stop-color="#2F1DD6" offset="29%"/>
            <stop stop-color="#5400E8" offset="100%"/>
        </linearGradient>
        <linearGradient x1="70.397%" y1="105.367%" x2="41.988%" y2="24.889%" id="ym15nbugag">
            <stop stop-color="#0056E0" offset="0%"/>
            <stop stop-color="#002588" offset="60.61%"/>
            <stop stop-color="#000B59" offset="100%"/>
        </linearGradient>
        <path id="r2kn6zr90a" d="M0 0h24.307v13.862H0z"/>
        <path id="2xwsxr175d" d="M0 0h24.307v13.862H0z"/>
    </defs>
    <g fill="none" fill-rule="evenodd">
        <g opacity=".099">
            <path d="m2.1 22.327 11.595-6.687a.638.638 0 0 1 .633-.002l11.595 6.61-11.912 6.894L2.1 22.327z" fill="#0041BF"/>
            <g transform="translate(2.1 1.78)">
                <mask id="k1beagygqb" fill="#fff">
                    <use xlink:href="#r2kn6zr90a"/>
                </mask>
                <path d="M0 7.327 12.154 0l12.153 6.927-11.83 6.848a.65.65 0 0 1-.648.002L0 7.327z" fill="#BA8AED" mask="url(#k1beagygqb)"/>
            </g>
        </g>
        <path d="M13.916 30.668c-.444 0-.888-.102-1.263-.341L1.797 24.114C.977 23.67.5 22.817.5 21.895V9.3c0-.922.478-1.775 1.297-2.22L12.653.834a2.628 2.628 0 0 1 2.56 0l10.855 6.281a2.568 2.568 0 0 1 1.298 2.219v12.494c0 .922-.478 1.741-1.298 2.219l-10.855 6.281c-.41.239-.853.341-1.297.341z" fill="#FFF" fill-rule="nonzero"/>
        <path d="M13.438 29.02a2.18 2.18 0 0 1-1.175-.318L2.166 22.923C1.404 22.511.959 21.717.959 20.86V9.143c0-.857.445-1.65 1.207-2.063l10.097-5.81a2.445 2.445 0 0 1 2.381 0L24.741 7.11a2.389 2.389 0 0 1 1.207 2.064v11.621c0 .857-.445 1.62-1.207 2.064l-10.097 5.842a2.368 2.368 0 0 1-1.206.318zm0-27.116a1.28 1.28 0 0 0-.699.19L2.611 7.938c-.445.254-.699.73-.699 1.238v11.716c0 .508.286.985.73 1.239l10.065 5.747c.445.254.985.254 1.43 0l10.096-5.843c.445-.254.699-.73.699-1.238V9.176c0-.509-.286-.985-.73-1.24L14.135 2.096a1.28 1.28 0 0 0-.698-.19z" fill="url(#0lmuokmcfc)" fill-rule="nonzero" transform="translate(.5 .5)"/>
        <g opacity=".099">
            <path d="m2.1 22.327 11.595-6.687a.638.638 0 0 1 .633-.002l11.595 6.61-11.912 6.894L2.1 22.327z" fill="#0041BF"/>
            <g transform="translate(2.1 1.78)">
                <mask id="b59ael56ze" fill="#fff">
                    <use xlink:href="#2xwsxr175d"/>
                </mask>
                <path d="M0 7.327 12.154 0l12.153 6.927-11.83 6.848a.65.65 0 0 1-.648.002L0 7.327z" fill="#BA8AED" mask="url(#b59ael56ze)"/>
            </g>
        </g>
        <path fill="url(#u6b5stj04f)" fill-rule="nonzero" d="m13.406 6.222-8.033 4.445v9.335l4.032 2.35v-4.7l4.001 2.319v-4.573l-4-2.286 4-2.254z" transform="translate(.5 .5)"/>
        <path fill="url(#ym15nbugag)" fill-rule="nonzero" d="m13.47 6.222 8.033 4.445v9.335l-4.033 2.35v-4.7l-4 2.319v-4.573l4-2.286-4-2.254z" transform="translate(.5 .5)"/>
        <path d="M42.228 8.66c-.413-1.08-1.08-1.557-2.095-1.557-1.017 0-1.652.477-2.033 1.524l-5.112 13.304c-.19.413-.19.89.032 1.302.223.38.572.667.985.794.254.095.508.127.793.127.667.031 1.239-.413 1.43-1.048l1.27-3.524h5.27l1.238 3.397c.127.413.413.762.794.984a2.031 2.031 0 0 0 1.556.064 1.613 1.613 0 0 0 1.016-.858c.19-.444.19-.92 0-1.333L42.228 8.659zm-3.651 7.905 1.048-2.857c.222-.635.38-1.08.508-1.525.127.445.285.89.508 1.493l1.047 2.89h-3.111zM59.5 7.23h-7.715c-1.62 0-2.222.604-2.222 2.191v13.145c0 .413.158.794.444 1.08.381.349.857.508 1.365.508 1.048 0 1.747-.604 1.747-1.556v-5.24h5.969c.794 0 1.302-.602 1.302-1.523a1.553 1.553 0 0 0-.445-1.207 1.272 1.272 0 0 0-.92-.38h-5.938v-3.906h6.477c.794 0 1.302-.603 1.302-1.524a1.553 1.553 0 0 0-.444-1.207 1.272 1.272 0 0 0-.921-.38zM73.98 7.23H63.215c-.794 0-1.302.604-1.302 1.524-.032.445.127.89.444 1.207.254.254.572.38.921.35h3.588v12.255c0 .413.159.794.445 1.08.38.349.857.508 1.365.508 1.048 0 1.746-.604 1.746-1.556V10.31h3.62c.794 0 1.302-.603 1.302-1.524A1.553 1.553 0 0 0 74.9 7.58a1.383 1.383 0 0 0-.92-.35zM113.859 11.993h-2.985c-3.746 0-3.746 3.112-3.746 3.112v7.017c0 1.11 1.048 2 2.318 2s2.222-.89 2.222-2.096v-6.89s0-.762.984-.762h1.302c1.46 0 1.46-1.174 1.46-1.174s0-1.207-1.555-1.207zM135.863 11.898h-2.54c-3.684.031-3.715 3.175-3.715 3.175v5.874s0 3.143 3.715 3.143h4.222a1.29 1.29 0 0 0 1.366-1.238c0-.667-.604-1.175-1.366-1.175h-2.413c-.984 0-1.016-.762-1.016-.762v-1.429h4.255c.762 0 1.397-.476 1.397-1.143v-3.27c-.032 0-.032-3.175-3.905-3.175zm1.11 5.302h-2.857v-2.064s0-.762 1.016-.762h.953c.444-.031.857.286.889.73V17.2zM101.666 11.898h-3.968c-.762 0-1.461.635-1.461 1.302 0 .666.762 1.11 1.524 1.11h2.096c.92 0 .92.731.92.731v1.429h-1.65c-3.62 0-3.874 2.858-3.874 2.858v1.587s0 3.175 3.873 3.175h3.938c1.301 0 2.35-.92 2.35-2.032v-6.985c-.033 0-.033-3.144-3.748-3.175zm-.92 7.08v2.73h-1.842c-1.016 0-.92-1.396-.92-1.396s-.128-1.397.92-1.397h1.842v.063zM148.976 11.898h-7.493c-1.556 0-1.556 1.143-1.556 1.143s0 1.143 1.46 1.143h.604c.952 0 .952.762.952.762v7.08c0 1.175.92 2.064 2.223 2.064 1.302 0 2.318-.889 2.318-1.968v-7.176c0-.159.127-.699.952-.699h.603c1.461 0 1.461-1.143 1.461-1.143s.032-1.206-1.524-1.206zM124.242 17.105l2.762-2.762a1.544 1.544 0 0 0-.063-2.16c-.604-.571-1.525-.571-2.096 0l-3.683 3.684V14.12a2.399 2.399 0 0 0-2.382-2.381 2.399 2.399 0 0 0-2.38 2.381v7.62a2.399 2.399 0 0 0 2.38 2.382 2.399 2.399 0 0 0 2.382-2.381v-1.556l.889-.89 2.667 3.843c.476.698 1.429.857 2.127.38.699-.476.858-1.428.381-2.127l-2.984-4.286zM92.617 12.152a1.491 1.491 0 0 0-.825-.254h-5.303c-.698 0-1.301.508-1.492 1.206-.19-.698-.794-1.206-1.492-1.206h-4.922a2.1 2.1 0 0 0-2.127 2.095v8.097c0 1.111.984 2 2.19 2a2.1 2.1 0 0 0 2.128-2.095v-5.907c0-.444.35-.825.762-.825h1.175c.413 0 .762.381.762.826v6.509c0 .825.635 1.524 1.397 1.524h.286c.762 0 1.397-.699 1.397-1.524v-6.51c0-.444.35-.825.762-.825h1.27c.413 0 .762.381.762.826v6.001c0 1.111.984 2 2.19 2a2.1 2.1 0 0 0 2.128-2.095V13.93c.095-.762-.35-1.429-1.048-1.778z" fill="#FFF" fill-rule="nonzero"/>
    </g>
</svg>
