<svg width="398" height="98" viewBox="0 0 398 98" xmlns="http://www.w3.org/2000/svg" xmlns:xlink="http://www.w3.org/1999/xlink">
    <defs>
        <linearGradient x1="19.243%" y1="84.438%" x2="80.57%" y2="15.572%" id="d1bxcz8bqd">
            <stop stop-color="#0041BF" offset="0%"/>
            <stop stop-color="#2326D0" offset="17%"/>
            <stop stop-color="#5400E8" offset="39%"/>
            <stop stop-color="#3669DC" offset="80%"/>
            <stop stop-color="#2898D7" offset="100%"/>
        </linearGradient>
        <linearGradient x1="509.565%" y1="50.039%" x2="510.336%" y2="50.039%" id="vkh89cdf1f">
            <stop stop-color="#0041BF" offset="0%"/>
            <stop stop-color="#063CC2" offset="17%"/>
            <stop stop-color="#2F1DD6" offset="29%"/>
            <stop stop-color="#5400E8" offset="100%"/>
        </linearGradient>
        <linearGradient x1="72.328%" y1="7.86%" x2="44.771%" y2="122.396%" id="y653mtdzag">
            <stop stop-color="#0056E0" offset="0%"/>
            <stop stop-color="#002588" offset="60.61%"/>
            <stop stop-color="#000B59" offset="100%"/>
        </linearGradient>
        <path id="rurqty3n7b" d="M0 0h65.62v37.423H0z"/>
        <path id="klfpyxfyle" d="M10.765 0 0 6.29v29.206l21.53 11.887V35.027L10.765 28.96l10.765-6.104V10.59l-10.765 6.233z"/>
        <path id="w29tfbsu3h" d="M0 0h289.098v59.665H0z"/>
        <filter x="-3.2%" y="-15.2%" width="106.3%" height="130.3%" filterUnits="objectBoundingBox" id="g8d11rgj3a">
            <feOffset dy="2" in="SourceAlpha" result="shadowOffsetOuter1"/>
            <feGaussianBlur stdDeviation="2" in="shadowOffsetOuter1" result="shadowBlurOuter1"/>
            <feColorMatrix values="0 0 0 0 0 0 0 0 0 0 0 0 0 0 0 0 0 0 0.5 0" in="shadowBlurOuter1" result="shadowMatrixOuter1"/>
            <feMerge>
                <feMergeNode in="shadowMatrixOuter1"/>
                <feMergeNode in="SourceGraphic"/>
            </feMerge>
        </filter>
    </defs>
    <g filter="url(#g8d11rgj3a)" transform="translate(9 9)" fill="none" fill-rule="evenodd">
        <path d="M35.175 79.099c-1.164 0-2.327-.269-3.312-.895L3.401 61.914C1.253 60.75 0 58.513 0 56.096V23.07c0-2.417 1.253-4.655 3.401-5.818L31.863.872a6.89 6.89 0 0 1 6.713 0l28.462 16.47c2.059 1.163 3.401 3.4 3.401 5.817v32.758c0 2.417-1.253 4.565-3.4 5.818L38.575 78.204c-1.074.626-2.238.895-3.401.895z" fill="#FFF" fill-rule="nonzero"/>
        <g opacity=".099">
            <path d="m3.217 57.825 31.304-18.053a1.721 1.721 0 0 1 1.709-.004L67.532 57.61 35.375 76.224 3.217 57.825z" fill="#0041BF"/>
            <g transform="translate(3.217 2.354)">
                <mask id="87v96v58dc" fill="#fff">
                    <use xlink:href="#rurqty3n7b"/>
                </mask>
                <path d="M0 19.78 32.81 0l32.81 18.7-31.937 18.488a1.753 1.753 0 0 1-1.749.004L0 19.78z" fill="#BA8AED" mask="url(#87v96v58dc)"/>
            </g>
        </g>
        <path d="M35.177 77.242c-1.115 0-2.229-.257-3.172-.857l-27.258-15.6C2.69 59.67 1.49 57.527 1.49 55.213v-31.63c0-2.314 1.2-4.457 3.257-5.571L32.005 2.326a6.6 6.6 0 0 1 6.429 0l27.258 15.772a6.45 6.45 0 0 1 3.257 5.571v31.373c0 2.314-1.2 4.371-3.257 5.571L38.434 76.385c-1.029.6-2.143.857-3.257.857zm0-73.202c-.686 0-1.372.172-1.886.515L5.947 20.326c-1.2.686-1.885 1.972-1.885 3.343V55.3c0 1.371.771 2.657 1.971 3.343l27.172 15.514c1.2.686 2.657.686 3.858 0L64.32 58.384c1.2-.685 1.886-1.971 1.886-3.342V23.669c0-1.371-.771-2.657-1.971-3.343L37.063 4.555c-.515-.343-1.2-.515-1.886-.515z" fill="url(#d1bxcz8bqd)" fill-rule="nonzero"/>
        <g transform="translate(13.578 18.285)">
            <use fill="#0545B1" xlink:href="#klfpyxfyle"/>
            <use fill="url(#vkh89cdf1f)" xlink:href="#klfpyxfyle"/>
        </g>
        <path fill="url(#y653mtdzag)" d="m21.641 22.857 10.765 6.104-10.765 6.066v12.356l21.53-11.887V22.953l-10.765-6.13-10.765-6.232z" transform="translate(13.578 18.285)"/>
        <g transform="translate(90.902 10.431)">
            <mask id="shz62kxy8i" fill="#fff">
                <use xlink:href="#w29tfbsu3h"/>
            </mask>
            <path d="M268.027 17.732c-1.084-1.014-2.48-1.597-3.829-1.597-1.665 0-3.428.391-5.027 3.22l-4.89 8.383-5.626-8.662c-1.302-2.007-2.852-2.941-4.876-2.941-4.129 0-5.87 3.251-5.788 5.561.034.948.458 1.938 1.28 3.004l7.642 10.805-7.386 11.354c-.981 1.496-1.403 2.592-1.37 3.554.05 1.395.677 2.726 1.767 3.745 1.144 1.07 2.656 1.685 4.143 1.685 1.83 0 3.453-.831 4.342-2.223a.023.023 0 0 0 .006-.009l6.046-10.096 5.77 8.624c1.501 2.223 3.006 3.704 5.465 3.704 3.742 0 5.607-2.62 5.517-5.209-.06-1.693-.634-2.658-1.228-3.43l-8.234-11.51 6.98-10.786c.737-1.114 1.058-2.287 1.01-3.696-.044-1.234-.67-2.503-1.714-3.48zm-50.987 6.792c-3.926 0-7.197 2.793-7.197 6.937v9.116c0 4.144 3.271 6.935 7.197 6.935 3.882 0 7.242-2.878 7.242-6.979v-9.029c0-4.101-3.36-6.98-7.242-6.98zm0 31.45c-8.768 0-15.966-5.277-15.966-15.004v-9.815c0-9.727 7.198-15.006 15.966-15.006 8.418 0 16.01 5.19 16.01 15.006v9.815c0 9.814-7.592 15.005-16.01 15.005zm-44.796-4.798V20.424c0-2.53 2.006-4.058 4.58-4.058 2.53 0 4.58 1.528 4.58 4.058l-.13 26.304h12.65c2.312 0 4.057 2.137 4.057 4.448 0 2.312-1.745 4.407-4.058 4.407h-17.666c-2.312 0-4.013-2.095-4.013-4.407zm-12.822-7.852c0-2.224-1.7-4.056-3.882-4.056h-9.117v8.027h9.247c2.051 0 3.752-1.745 3.752-3.97zm-1.745-15.223c0-1.614-1.046-3.227-2.616-3.227h-8.681v6.324h8.723c1.528 0 2.574-1.483 2.574-3.097zm8.986.131c0 2.138-1.134 5.366-2.486 6.587 2.137 1.614 4.101 4.972 4.101 8.724 0 6.892-5.017 11.735-11.429 11.735h-15.093c-2.312 0-4.1-1.964-4.1-4.494V21.34c0-2.53 1.788-4.536 4.1-4.536h14.308c6.02 0 10.6 4.973 10.6 11.43zM80.99 24.34c-3.147 0-3.147 2.337-3.147 2.337v6.41h8.955v-6.248s0-2.499-2.836-2.499H80.99zm2.333-7.766c12.141 0 12.141 9.947 12.141 9.947v10.291c0 2.079-1.978 3.599-4.373 3.599l-13.377-.01v4.422s.129 2.327 3.213 2.327l7.508.016c2.417 0 4.314 1.634 4.314 3.71 0 2.057-1.956 3.875-4.314 3.875H75.258c-11.58 0-11.58-9.815-11.58-9.815V26.52s.087-9.835 11.66-9.947h7.985zm33.094 7.767c-3.152 0-3.152 2.337-3.152 2.337v6.408h8.966V26.84s0-2.499-2.846-2.499h-2.968zm2.338-7.767c12.141 0 12.141 9.947 12.141 9.947v10.292c0 2.078-1.978 3.598-4.372 3.598l-13.388-.008v4.421s.129 2.326 3.223 2.326l7.506.016c2.416 0 4.303 1.635 4.303 3.71 0 2.057-1.955 3.875-4.303 3.875h-13.187c-11.57 0-11.57-9.814-11.57-9.814V26.521s.08-9.836 11.659-9.947h7.988zM50.64 48.214c0 3.712-2.915 6.537-6.949 6.536-3.991 0-7.266-2.824-7.266-6.255V26.522s0-9.69 11.738-9.69h9.305c4.872 0 4.872 3.801 4.872 3.801s0 3.66-4.552 3.66h-4.112c-3.036 0-3.036 2.399-3.036 2.399v21.521zM0 10.403S-.13.111 11.422 0h18.567c2.318 0 4.275 1.65 4.275 3.675 0 2.073-1.957 3.727-4.275 3.727H17.24c-3.332.025-3.034 2.468-3.034 2.468v6.772h15.711c4.363.356 4.363 2.458 4.363 4.475 0 2.066-1.708 3.65-4.042 3.65H14.206v23.498c0 3.429-2.916 6.485-6.958 6.485C3.215 54.75 0 51.97 0 48.483V10.404z" fill="#FFF" mask="url(#shz62kxy8i)"/>
        </g>
    </g>
</svg>
