<svg width="103" height="17" viewBox="0 0 103 17" xmlns="http://www.w3.org/2000/svg">
    <g fill="#C4C4C4" fill-rule="nonzero">
        <path d="M9.7 3.277C9.361 2.391 8.814 2 7.98 2c-.835 0-1.356.391-1.669 1.251L2.114 14.174c-.156.339-.156.73.026 1.069.183.313.47.547.808.651A1.8 1.8 0 0 0 3.6 16c.548.026 1.017-.34 1.173-.86l1.043-2.894h4.327l1.017 2.79c.104.338.339.625.652.807.39.183.86.209 1.277.052.365-.104.678-.365.834-.703a1.336 1.336 0 0 0 0-1.095L9.7 3.277zM6.702 9.768l.86-2.346c.183-.521.313-.886.418-1.251.104.365.234.73.417 1.225l.86 2.372H6.702zM23.881 2.104h-6.334c-1.33 0-1.825.496-1.825 1.799v10.792c0 .34.13.652.365.887a1.62 1.62 0 0 0 1.12.417c.861 0 1.435-.496 1.435-1.278v-4.3h4.9c.652 0 1.07-.496 1.07-1.252a1.275 1.275 0 0 0-.366-.99 1.044 1.044 0 0 0-.756-.314h-4.875V4.66h5.318c.652 0 1.07-.495 1.07-1.251a1.275 1.275 0 0 0-.366-.99 1.044 1.044 0 0 0-.756-.314zM35.768 2.104h-8.837c-.651 0-1.069.496-1.069 1.252-.026.365.105.73.365.99.209.209.47.313.756.287h2.946v10.062c0 .34.13.652.365.887a1.62 1.62 0 0 0 1.121.417c.86 0 1.434-.496 1.434-1.278V4.633h2.972c.651 0 1.068-.495 1.068-1.251a1.275 1.275 0 0 0-.365-.991 1.136 1.136 0 0 0-.756-.287zM68.51 6.015h-2.45c-3.076 0-3.076 2.554-3.076 2.554v5.761c0 .913.86 1.643 1.903 1.643 1.042 0 1.825-.73 1.825-1.72V8.594s0-.625.808-.625h1.068c1.2 0 1.2-.965 1.2-.965s0-.99-1.278-.99zM86.576 5.936H84.49c-3.024.026-3.05 2.607-3.05 2.607v4.823s0 2.58 3.05 2.58h3.467c.6.027 1.095-.417 1.121-1.016 0-.548-.495-.965-1.12-.965h-1.982c-.808 0-.834-.625-.834-.625v-1.173h3.493c.626 0 1.147-.391 1.147-.939V8.543c-.026 0-.026-2.607-3.206-2.607zm.912 4.354h-2.346V8.595s0-.625.834-.625h.782c.365-.026.704.234.73.6v1.72zM58.5 5.936h-3.259c-.625 0-1.199.522-1.199 1.07 0 .547.626.912 1.252.912h1.72c.756 0 .756.6.756.6V9.69h-1.355c-2.972 0-3.18 2.346-3.18 2.346v1.304s0 2.607 3.18 2.607h3.232c1.069 0 1.93-.756 1.93-1.669V8.543c-.027 0-.027-2.58-3.077-2.607zm-.756 5.814v2.241h-1.512c-.834 0-.756-1.147-.756-1.147s-.104-1.147.756-1.147h1.512v.053zM97.342 5.936H91.19c-1.278 0-1.278.939-1.278.939s0 .938 1.2.938h.495c.782 0 .782.626.782.626v5.813c0 .965.756 1.695 1.825 1.695 1.068 0 1.903-.73 1.903-1.617V8.44c0-.13.104-.574.782-.574h.495c1.2 0 1.2-.938 1.2-.938s.025-.99-1.252-.99zM77.035 10.212l2.268-2.268a1.267 1.267 0 0 0-.053-1.773c-.495-.47-1.25-.47-1.72 0l-3.024 3.024V7.76a1.97 1.97 0 0 0-1.955-1.955 1.97 1.97 0 0 0-1.955 1.955v6.256a1.97 1.97 0 0 0 1.955 1.956 1.97 1.97 0 0 0 1.955-1.956V12.74l.73-.73 2.19 3.155a1.253 1.253 0 0 0 1.746.312 1.253 1.253 0 0 0 .313-1.746l-2.45-3.52zM51.07 6.145a1.224 1.224 0 0 0-.677-.209h-4.354c-.573 0-1.068.417-1.225.99-.156-.573-.652-.99-1.225-.99H39.548a1.724 1.724 0 0 0-1.746 1.72v6.648c0 .913.808 1.643 1.798 1.643a1.724 1.724 0 0 0 1.747-1.721V9.377c0-.365.287-.677.626-.677h.964c.34 0 .626.312.626.677v5.344c0 .678.521 1.252 1.147 1.252h.234c.626 0 1.147-.574 1.147-1.252V9.377c0-.365.287-.677.626-.677h1.043c.339 0 .626.312.626.677v4.927c0 .913.808 1.643 1.798 1.643a1.724 1.724 0 0 0 1.747-1.721V7.605c.078-.626-.287-1.173-.86-1.46z"/>
    </g>
</svg>
