<svg width="200" height="42" viewBox="0 0 200 42" xmlns="http://www.w3.org/2000/svg" xmlns:xlink="http://www.w3.org/1999/xlink">
    <defs>
        <linearGradient x1="19.243%" y1="84.438%" x2="80.57%" y2="15.572%" id="os1az96ugc">
            <stop stop-color="#0041BF" offset="0%"/>
            <stop stop-color="#2326D0" offset="17%"/>
            <stop stop-color="#5400E8" offset="39%"/>
            <stop stop-color="#3669DC" offset="80%"/>
            <stop stop-color="#2898D7" offset="100%"/>
        </linearGradient>
        <linearGradient x1="3.569%" y1="36.511%" x2="100%" y2="56.439%" id="792uy46jbf">
            <stop stop-color="#0056E0" offset="0%"/>
            <stop stop-color="#002588" offset="60.61%"/>
            <stop stop-color="#000B59" offset="100%"/>
        </linearGradient>
        <linearGradient x1="13.336%" y1="18.273%" x2="100%" y2="68.248%" id="tw71rc86rg">
            <stop stop-color="#0056E0" offset="0%"/>
            <stop stop-color="#002588" offset="60.61%"/>
            <stop stop-color="#000B59" offset="100%"/>
        </linearGradient>
        <linearGradient x1="19.209%" y1="23.281%" x2="100%" y2="56.439%" id="ze9qgjqjbh">
            <stop stop-color="#000B59" offset="0%"/>
            <stop stop-color="#002588" offset="39.39%"/>
            <stop stop-color="#0056E0" offset="100%"/>
        </linearGradient>
        <path id="fzwss61poa" d="M0 0h32.195v18.36H0z"/>
        <path id="1ilv1xf4id" d="M0 0h143.046v26.49H0z"/>
    </defs>
    <g fill="none" fill-rule="evenodd">
        <g opacity=".099">
            <path d="m2.78 29.573 15.359-8.858c.26-.149.578-.15.838-.002l15.358 8.754-15.777 9.132L2.78 29.573z" fill="#0041BF"/>
            <g transform="translate(2.78 2.357)">
                <mask id="kpy4xpauwb" fill="#fff">
                    <use xlink:href="#fzwss61poa"/>
                </mask>
                <path d="M0 9.704 16.098 0l16.097 9.175-15.67 9.07a.86.86 0 0 1-.857.002L0 9.704z" fill="#BA8AED" mask="url(#kpy4xpauwb)"/>
            </g>
        </g>
        <path d="M18.431 40.62c-.587 0-1.175-.135-1.672-.452L2.38 31.94C1.295 31.351.662 30.221.662 29V12.316c0-1.22.633-2.35 1.718-2.939L16.76 1.103a3.481 3.481 0 0 1 3.39 0l14.379 8.32a3.402 3.402 0 0 1 1.718 2.938V28.91c0 1.22-.633 2.306-1.718 2.939l-14.378 8.32a3.372 3.372 0 0 1-1.719.451z" fill="#FFF" fill-rule="nonzero"/>
        <path d="M17.798 38.437c-.546 0-1.093-.127-1.556-.42L2.87 30.361c-1.01-.547-1.598-1.598-1.598-2.733V12.11c0-1.135.589-2.186 1.598-2.733L16.242 1.68a3.238 3.238 0 0 1 3.154 0L32.77 9.419a3.164 3.164 0 0 1 1.598 2.733v15.392c0 1.136-.589 2.145-1.598 2.734l-13.374 7.738a3.136 3.136 0 0 1-1.598.42zm0-35.915c-.336 0-.673.084-.925.252L3.458 10.512c-.59.337-.926.968-.926 1.64v15.519c0 .673.379 1.303.968 1.64l13.331 7.612a1.9 1.9 0 0 0 1.893 0l13.373-7.738c.589-.337.925-.968.925-1.64V12.151a1.91 1.91 0 0 0-.967-1.64L18.724 2.774c-.253-.168-.59-.252-.926-.252z" fill="url(#os1az96ugc)" fill-rule="nonzero" transform="translate(.662 .662)"/>
        <g opacity=".099">
            <path d="m2.78 29.573 15.359-8.858c.26-.149.578-.15.838-.002l15.358 8.754-15.777 9.132L2.78 29.573z" fill="#0041BF"/>
            <path d="m2.113 11.78 16.264-9.422 15.935 9.455-15.825 8.795a.86.86 0 0 1-.858-.013L2.113 11.78z" fill="#BA8AED"/>
        </g>
        <g transform="translate(42.384 6.623)">
            <mask id="mzjo2g27ve" fill="#fff">
                <use xlink:href="#1ilv1xf4id"/>
            </mask>
            <path d="M126.812 9.788s0-1.807-2.349-1.807H113.15c-2.35 0-2.35 1.754-2.35 1.754s0 1.738 2.2 1.738h.916c1.463 0 1.463 1.136 1.463 1.136v10.717c0 1.761 1.405 3.102 3.357 3.102 1.92 0 3.504-1.341 3.504-2.97V12.59c.026-.244.21-1.067 1.457-1.067h.913c2.202 0 2.202-1.736 2.202-1.736zm6.472 13.001h2.775V18.567h-2.775c-1.572 0-1.37 2.11-1.37 2.11s-.16 2.112 1.37 2.112zm9.762-10.047v10.602c0 1.687-1.597 3.082-3.552 3.082h-5.93c-5.841 0-5.841-4.8-5.841-4.8v-2.372s.368-4.337 5.842-4.316h2.503v-2.173s0-1.12-1.374-1.12h-3.178c-1.162 0-2.294-.696-2.294-1.7 0-1.003 1.074-1.964 2.233-1.964h5.997c5.594.03 5.594 4.76 5.594 4.76zM90.19 8.43a2.21 2.21 0 0 0-1.234-.387H80.94c-1.069 0-1.966.78-2.253 1.834-.286-1.054-1.184-1.834-2.252-1.834H69.09c-.014 0-.027.004-.04.004-.017 0-.032-.004-.05-.004a3.16 3.16 0 0 0-3.199 3.151V23.446c0 1.693 1.48 3.044 3.334 3.044 1.863 0 3.2-1.485 3.2-3.152v-8.965c0-.693.521-1.254 1.164-1.254h1.774c.643 0 1.164.557 1.165 1.25l-.002 9.823c0 1.264.96 2.298 2.134 2.298h.445c1.174 0 2.134-1.034 2.134-2.298l-.01-9.821c0-.693.521-1.252 1.165-1.252h1.915c.643 0 1.164.561 1.164 1.254v9.073c0 1.694 1.48 3.044 3.333 3.044a3.16 3.16 0 0 0 3.2-3.152V11.086c0-1.156-.697-2.14-1.725-2.656zm12.388 3.304c-1.52 0-1.52 1.129-1.52 1.129v3.097h4.326v-3.018s0-1.208-1.37-1.208h-1.436zm1.127-3.753c5.865 0 5.865 4.806 5.865 4.806v4.973c0 1.004-.955 1.739-2.112 1.739l-6.462-.004v2.136s.062 1.124 1.552 1.124l3.627.008c1.167 0 2.084.79 2.084 1.792 0 .995-.945 1.873-2.084 1.873H99.81c-5.594 0-5.594-4.742-5.594-4.742v-8.899s.042-4.752 5.633-4.806h3.857zm-64.578 3.78c-1.52 0-1.52 1.13-1.52 1.13v3.097h4.327v-3.02s0-1.206-1.37-1.206h-1.437zm1.128-3.752c5.865 0 5.865 4.806 5.865 4.806v4.973c0 1.004-.955 1.739-2.112 1.739l-6.463-.004v2.136s.062 1.124 1.553 1.124l3.627.008c1.167 0 2.084.79 2.084 1.793 0 .994-.945 1.872-2.084 1.872h-6.367c-5.594 0-5.594-4.742-5.594-4.742v-8.9s.042-4.752 5.633-4.805h3.858zm15.988 3.753c-1.523 0-1.523 1.13-1.523 1.13v3.096h4.332v-3.019s0-1.207-1.375-1.207h-1.434zm1.13-3.753c5.865 0 5.865 4.806 5.865 4.806v4.973c0 1.004-.956 1.739-2.112 1.739l-6.468-.004v2.136s.062 1.124 1.557 1.124l3.626.008c1.168 0 2.08.79 2.08 1.793 0 .994-.945 1.872-2.08 1.872h-6.37c-5.59 0-5.59-4.742-5.59-4.742v-8.899s.038-4.753 5.632-4.806h3.86zM24.465 23.297c0 1.794-1.408 3.16-3.358 3.159-1.928 0-3.51-1.365-3.51-3.023V12.816s0-4.683 5.671-4.683h4.496c2.353 0 2.353 1.837 2.353 1.837s0 1.769-2.199 1.769h-1.987c-1.466 0-1.466 1.159-1.466 1.159v10.4zM0 5.027S-.063.054 5.518 0h8.97c1.12 0 2.066.798 2.066 1.776 0 1.002-.946 1.8-2.066 1.8H8.33C6.72 3.59 6.863 4.77 6.863 4.77v3.273h7.59c2.108.172 2.108 1.187 2.108 2.162 0 .998-.825 1.763-1.952 1.763H6.863v11.355c0 1.657-1.409 3.134-3.361 3.134C1.553 26.456 0 25.112 0 23.428v-18.4z" fill="#FFF" mask="url(#mzjo2g27ve)"/>
        </g>
        <g>
            <path fill="#0041BF" d="M13.113 11.656 7.815 14.68v12.394l5.14 3.124.023-12.47z"/>
            <path d="M5.398 0 0 3.056l10.596 6.216V3.056z" fill="url(#792uy46jbf)" transform="translate(7.815 11.656)"/>
            <path fill="#0041BF" d="M13.113 11.656 7.815 14.68v12.394l5.14 3.124.023-12.47z"/>
            <path d="M5.398 0 0 3.056l10.596 6.216V3.056z" fill="url(#tw71rc86rg)" transform="translate(7.815 11.656)"/>
        </g>
        <g>
            <path fill="#0041BF" d="m23.709 11.656 5.298 3.025v12.394L23.865 30.2l-.022-12.47z"/>
            <path d="M5.398 0 0 3.056l10.596 6.216V3.056z" fill="url(#792uy46jbf)" transform="matrix(-1 0 0 1 29.007 11.656)"/>
            <path fill="#0041BF" d="m23.709 11.656 5.298 3.025v12.394L23.865 30.2l-.022-12.47z"/>
            <path d="M5.398 0 0 3.056l10.596 6.216V3.056z" fill="url(#ze9qgjqjbh)" transform="matrix(-1 0 0 1 29.007 11.656)"/>
        </g>
    </g>
</svg>
