<svg width="85" height="17" viewBox="0 0 85 17" xmlns="http://www.w3.org/2000/svg" xmlns:xlink="http://www.w3.org/1999/xlink">
    <defs>
        <path id="19jiwviw9a" d="M0 0h85v15.738H0z"/>
    </defs>
    <g fill="none" fill-rule="evenodd">
        <mask id="bi0u2d9j1b" fill="#fff">
            <use xlink:href="#19jiwviw9a"/>
        </mask>
        <path d="M75.353 5.815s0-1.073-1.395-1.073h-6.723c-1.396 0-1.396 1.041-1.396 1.041s0 1.033 1.307 1.033h.544c.87 0 .87.675.87.675v6.367c0 1.046.834 1.843 1.995 1.843 1.14 0 2.081-.797 2.081-1.765V7.48c.016-.145.126-.634.867-.634h.542c1.308 0 1.308-1.031 1.308-1.031zm3.846 7.724h1.65v-2.508h-1.65c-.934 0-.814 1.253-.814 1.253s-.095 1.255.814 1.255zM85 7.57v6.3c0 1.002-.95 1.83-2.111 1.83h-3.523c-3.471 0-3.471-2.85-3.471-2.85v-1.41s.219-2.577 3.471-2.565h1.487v-1.29s0-.666-.816-.666h-1.889c-.69 0-1.362-.413-1.362-1.01 0-.596.638-1.166 1.326-1.166h3.564C85 4.759 85 7.57 85 7.57zM53.592 5.01a1.313 1.313 0 0 0-.733-.23h-4.764c-.635 0-1.168.463-1.338 1.089-.17-.626-.704-1.09-1.338-1.09h-4.366l-.024.003c-.01 0-.018-.003-.028-.003a1.878 1.878 0 0 0-1.902 1.873v7.278c0 1.006.88 1.808 1.981 1.808a1.878 1.878 0 0 0 1.902-1.872V8.539c0-.411.31-.745.692-.745h1.054c.382 0 .691.331.692.743l-.001 5.835c0 .751.57 1.365 1.267 1.365h.265c.698 0 1.268-.614 1.268-1.365l-.005-5.834c0-.412.309-.744.692-.744h1.137c.382 0 .692.334.692.745v5.39c0 1.006.88 1.809 1.98 1.809a1.878 1.878 0 0 0 1.902-1.873V6.586c0-.686-.414-1.271-1.025-1.577zm7.361 1.962c-.903 0-.903.67-.903.67v1.84h2.57V7.69s0-.718-.813-.718h-.854zm.67-2.23c3.485 0 3.485 2.856 3.485 2.856v2.954c0 .597-.567 1.033-1.255 1.033l-3.84-.002v1.269s.037.668.923.668l2.155.004c.693 0 1.238.47 1.238 1.065 0 .59-.562 1.113-1.238 1.113h-3.783c-3.324 0-3.324-2.818-3.324-2.818V7.597s.025-2.824 3.347-2.856h2.292zM23.25 6.988c-.903 0-.903.67-.903.67v1.84h2.57V7.705s0-.717-.813-.717h-.854zm.67-2.23c3.485 0 3.485 2.856 3.485 2.856v2.954c0 .596-.568 1.033-1.255 1.033l-3.84-.003v1.27s.037.667.922.667l2.156.005c.693 0 1.238.47 1.238 1.065 0 .59-.562 1.113-1.238 1.113h-3.783c-3.324 0-3.324-2.818-3.324-2.818V7.613s.024-2.823 3.346-2.855h2.293zm9.5 2.23c-.905 0-.905.67-.905.67v1.84h2.575V7.705s0-.717-.818-.717h-.852zm.672-2.23c3.485 0 3.485 2.856 3.485 2.856v2.954c0 .596-.568 1.033-1.255 1.033l-3.843-.002v1.269s.036.667.925.667l2.155.005c.693 0 1.235.47 1.235 1.065 0 .59-.562 1.113-1.235 1.113h-3.786c-3.321 0-3.321-2.818-3.321-2.818V7.614s.022-2.824 3.346-2.856h2.294zM14.537 13.84c0 1.066-.836 1.877-1.995 1.876-1.145 0-2.086-.81-2.086-1.795V7.614s0-2.782 3.37-2.782h2.672c1.398 0 1.398 1.091 1.398 1.091s0 1.051-1.307 1.051h-1.18c-.872 0-.872.689-.872.689v6.178zM0 2.987S-.037.032 3.279 0h5.33c.665 0 1.227.474 1.227 1.055 0 .595-.562 1.07-1.227 1.07h-3.66c-.956.007-.871.708-.871.708v1.945h4.51c1.253.102 1.253.705 1.253 1.284 0 .593-.49 1.048-1.16 1.048H4.078v6.746c0 .984-.837 1.861-1.997 1.861C.923 15.717 0 14.92 0 13.918V2.987z" fill="#C4C4C4" mask="url(#bi0u2d9j1b)"/>
    </g>
</svg>
